<?xml version="1.0" encoding="utf-8"?>
<!-- Generator: Adobe Illustrator 23.0.0, SVG Export Plug-In . SVG Version: 6.00 Build 0)  -->
<svg version="1.1" xmlns="http://www.w3.org/2000/svg" xmlns:xlink="http://www.w3.org/1999/xlink" x="0px" y="0px"
	 viewBox="0 0 432 144" style="enable-background:new 0 0 432 144;" xml:space="preserve">
<style type="text/css">
	.st0{fill:#FFFFFF;}
	.st1{fill:#DF6A2E;}
</style>
<g id="Layer_1">
</g>
<g id="Layer_2">
	<path class="st0" d="M118.81,43.04c-0.66-1.44,0-2.54,1.66-2.54h6.53c1.11,0,1.66,0.55,1.99,1.22l11.51,26.11h0.11l11.95-26.11
		c0.55-1.22,1.77-1.22,2.99-1.22h5.09c1.66,0,2.32,1.11,1.66,2.54l-19.58,41.71c-0.22,0.55-0.89,1.11-1.88,1.11h-0.55
		c-1,0-1.66-0.55-1.88-1.11L118.81,43.04z"/>
	<path class="st0" d="M183.5,39.39c12.39,0,22.35,10.62,22.35,23.13c0,12.72-9.96,23.35-22.35,23.35
		c-12.39,0-22.35-10.62-22.35-23.35C161.15,50.01,171.11,39.39,183.5,39.39z M183.5,76.34c6.97,0,12.5-6.2,12.5-13.83
		c0-7.41-5.53-13.5-12.5-13.5c-6.97,0-12.5,6.09-12.5,13.5C171,70.15,176.53,76.34,183.5,76.34z"/>
	<path class="st0" d="M232.12,39.39c6.75,0,11.95,2.77,16.04,7.86c0.77,1,0.55,2.32-0.44,3.1l-3.65,3.32
		c-1.33,1.22-2.1,0.33-2.99-0.44c-1.99-2.21-5.2-4.21-8.85-4.21c-7.19,0-12.83,6.09-12.83,13.61c0,7.63,5.53,13.72,12.72,13.72
		c5.64,0,7.97-2.88,10.29-5.09c1-1,1.99-1,2.99-0.22l2.99,2.43c1.11,0.89,1.55,1.99,0.77,3.1c-3.54,5.64-9.52,9.29-17.15,9.29
		c-12.39,0-23.13-9.85-23.13-23.13C208.89,49.68,219.84,39.39,232.12,39.39z"/>
	<path class="st0" d="M270.29,56.76c4.65,0,8.74,1.33,8.74,1.33c0.11-6.97-1.22-9.74-6.86-9.74c-5.09,0-10.07,1.33-12.39,1.99
		c-1.33,0.33-2.1-0.55-2.43-1.77l-0.89-4.09c-0.33-1.44,0.44-2.21,1.44-2.54c0.78-0.33,7.08-2.54,15.27-2.54
		c14.16,0,15.49,8.63,15.49,19.7v23.57c0,1.11-1,2.1-2.1,2.1h-3.1c-1,0-1.44-0.44-1.88-1.55l-1.11-2.99
		c-2.43,2.32-6.75,5.64-13.61,5.64c-8.3,0-14.27-5.64-14.27-14.83C252.59,62.96,259.01,56.76,270.29,56.76z M268.97,78
		c4.43,0,8.63-3.32,9.96-5.53v-7.08c-0.66-0.44-3.76-1.77-7.75-1.77c-5.31,0-8.96,2.77-8.96,7.3C262.22,74.91,264.87,78,268.97,78z"
		/>
	<path class="st0" d="M297.42,49.68h-4.65c-1.22,0-2.1-1-2.1-2.1V42.6c0-1.22,0.89-2.1,2.1-2.1h4.65V28.21c0-1.11,1-2.1,2.1-2.1
		l6.31-0.11c1.11,0,1.99,1,1.99,2.1V40.5h11.29c1.22,0,2.1,0.89,2.1,2.1v4.98c0,1.11-0.89,2.1-2.1,2.1h-11.29v21.91
		c0,3.76,1.44,4.43,3.54,4.43c2.32,0,5.42-1.33,6.75-1.99c1.44-0.66,2.1,0,2.54,1l1.99,4.87c0.55,1.22,0.11,2.1-1,2.66
		c-1.11,0.66-7.63,3.32-12.95,3.32c-8.74,0-11.29-5.31-11.29-13.17V49.68z"/>
	<path class="st0" d="M344.58,39.39c11.51,0,20.36,8.63,20.36,20.47c0,0.77-0.11,2.21-0.22,2.99c-0.11,1.11-1,1.88-1.99,1.88h-30.1
		c0.33,5.97,5.53,11.84,12.72,11.84c3.98,0,7.63-1.77,9.85-3.21c1.33-0.77,2.1-1.22,2.99-0.11l3.1,4.2
		c0.77,0.89,1.11,1.77-0.22,2.88c-3.21,2.77-8.96,5.53-16.38,5.53c-13.39,0-22.24-10.51-22.24-23.24
		C322.45,50.12,331.3,39.39,344.58,39.39z M354.65,57.76c-0.33-5.31-4.76-9.85-10.18-9.85c-5.98,0-10.62,4.32-11.29,9.85H354.65z"/>
	<g>
		<path class="st1" d="M23.63,115.41l1.6-2.83c0.27-0.44,0.92-0.37,1.16-0.2c0.14,0.07,2.59,1.87,4.84,1.87
			c1.36,0,2.35-0.85,2.35-2.04c0-1.43-1.19-2.52-3.51-3.44c-2.93-1.16-6.61-3.44-6.61-7.53c0-3.37,2.62-6.78,7.87-6.78
			c3.54,0,6.27,1.81,7.29,2.55c0.41,0.24,0.34,0.85,0.2,1.09l-1.74,2.62c-0.24,0.37-0.85,0.68-1.16,0.44
			c-0.31-0.17-2.79-2.04-4.87-2.04c-1.23,0-2.15,0.82-2.15,1.74c0,1.26,1.02,2.21,3.71,3.3c2.66,1.06,6.88,3.13,6.88,7.77
			c0,3.51-3.03,7.05-8.04,7.05c-4.43,0-6.88-1.84-7.66-2.62C23.46,116.02,23.36,115.88,23.63,115.41z"/>
		<path class="st1" d="M54.96,99.81h-4.87c-0.38,0-0.65-0.31-0.65-0.65v-3.71c0-0.34,0.27-0.65,0.65-0.65h15.12
			c0.38,0,0.65,0.31,0.65,0.65v3.71c0,0.34-0.27,0.65-0.65,0.65h-4.87V118c0,0.34-0.31,0.65-0.65,0.65h-4.09
			c-0.34,0-0.65-0.31-0.65-0.65V99.81z"/>
		<path class="st1" d="M77.44,95.45c0-0.34,0.31-0.65,0.65-0.65h4.19c0.38,0,0.65,0.31,0.65,0.65v13.79c0,2.38,1.77,4.29,4.19,4.29
			c2.45,0,4.26-1.91,4.26-4.29V95.45c0-0.34,0.27-0.65,0.65-0.65h4.19c0.34,0,0.65,0.31,0.65,0.65v14.07c0,5.18-4.36,9.47-9.74,9.47
			c-5.35,0-9.67-4.29-9.67-9.47V95.45z"/>
		<path class="st1" d="M110.85,95.45c0-0.34,0.27-0.65,0.61-0.65h8.31c6.57,0,11.95,5.35,11.95,11.89c0,6.61-5.38,11.95-11.95,11.95
			h-8.31c-0.34,0-0.61-0.31-0.61-0.65V95.45z M119.43,113.6c3.85,0,6.64-3.03,6.64-6.91c0-3.85-2.79-6.88-6.64-6.88h-3.27v13.79
			H119.43z"/>
		<path class="st1" d="M148.31,107.16l-7.53-11.38c-0.27-0.44,0-0.99,0.55-0.99h4.43c0.27,0,0.44,0.17,0.55,0.31l4.73,6.98
			l4.73-6.98c0.1-0.14,0.24-0.31,0.54-0.31h4.43c0.55,0,0.82,0.55,0.55,0.99l-7.63,11.34V118c0,0.34-0.31,0.65-0.65,0.65h-4.05
			c-0.38,0-0.65-0.31-0.65-0.65V107.16z"/>
	</g>
	<path class="st0" d="M102.12,28.14c-0.39-0.78-1.41-1.33-2.08-1.33h-0.8c-0.67,0-1.69,0.55-2.1,1.35L72.5,82.18
		c-0.34,0.74-0.3,1.56,0.1,2.2c0.42,0.65,1.14,1.02,1.99,1.02h5.06c1.37,0,2.25-0.91,2.58-1.69c0.8-1.85,1.63-3.68,2.45-5.51
		c0.75-1.66,1.5-3.33,2.23-5h25.2l4.76,10.52c0.49,1.1,1.38,1.68,2.58,1.68h5.06c0.85,0,1.57-0.37,1.99-1.02
		c0.41-0.64,0.44-1.46,0.1-2.2L102.12,28.14z M108.34,64.7H90.75l8.76-19.67L108.34,64.7z"/>
	<path class="st0" d="M45.31,27.62H26.85c-1.22,0-2.25,1.07-2.25,2.33v53.13c0,1.26,1.03,2.33,2.25,2.33h18.46
		c15.98,0,28.97-13,28.97-28.97C74.28,40.55,61.28,27.62,45.31,27.62z M63.77,56.43c0,11.44-8.24,19.74-19.58,19.74h-9.79V36.85
		h9.79C55.53,36.85,63.77,45.09,63.77,56.43z"/>
	<path class="st1" d="M394.59,77.05h-8.46V27.12c0-1.14-0.92-2.1-2.02-2.1h-4.49l-12.66,11.5c-0.51,0.51-0.66,1.42-0.37,2.21
		l1.06,3.08c0.15,0.43,0.44,0.76,0.84,0.94c0.49,0.22,1.1,0.19,1.69-0.07l6.44-3.06v37.44h-7.53c-1.37,0-2.49,1.11-2.49,2.49v4.19
		c0,1.37,1.11,2.49,2.49,2.49h25.49c1.37,0,2.49-1.11,2.49-2.49v-4.19C397.08,78.17,395.97,77.05,394.59,77.05z"/>
</g>
</svg>
