<?xml version="1.0" encoding="utf-8"?>
<!-- Generator: Adobe Illustrator 23.0.0, SVG Export Plug-In . SVG Version: 6.00 Build 0)  -->
<svg version="1.1" id="Layer_1" xmlns="http://www.w3.org/2000/svg" xmlns:xlink="http://www.w3.org/1999/xlink" x="0px" y="0px"
	 viewBox="0 0 339 40" style="enable-background:new 0 0 339 40;" xml:space="preserve">
<style type="text/css">
	.st0{fill:none;stroke:#DF6A2E;stroke-width:3;stroke-linecap:round;stroke-linejoin:round;}
</style>
<path class="st0" d="M127.5,24.51c6.93-2.03,21.85-9.45,21.85-9.45s-3.52,6.62-5.38,8.69c5.25-3.39,10.16-6.52,15.8-9.21
	c0.74,2.44-3.42,5.9-4.8,7.92c6.18,0.07,15.17-7.03,15.17-7.03s-1.26,5.87-2.54,8.77c5.46-0.39,12.26-9.13,12.26-9.13
	s-4.62,7.89-4.03,10.87c6.14-4.38,11.89-8.54,18.79-11.64c0.05,0.93,0.1,1.86,0.15,2.79c-1.81,2.95-3.56,5.93-5.25,8.95
	c6.52-5.29,12.85-10.37,20.06-14.69c0.18,5.1-3.16,9.09-5.39,13.53c5.9-3.81,11.24-8.03,17.42-11.39c-0.4,5.06-3.34,8.85-5.65,13.26
	c5.42-4.32,10.57-8.59,16.56-12.1c-0.46,3.76-2.71,6.44-3.73,10.03c5.38-3.34,10.43-6.46,16.5-8.36c-0.67,3.4-2.94,5.86-3.29,9.23
	c5.15-3.28,9.93-6.45,15.87-8.04c-0.73,2.62-2.15,4.48-3.42,6.85c5.49-2.78,10.71-5.96,16.25-8.66c0.69,2.93-2.28,5.11-3.42,7.7
	c5.54-2.96,10.81-5.96,16.77-7.98c-0.88,3.76-3.03,6.51-5.14,9.69c6.17-4.91,12.2-8.83,19.41-11.99c0.18,0.96-2.8,10.22-4.24,13.99
	c0.78-0.23,1.56-0.47,2.35-0.7c4.23-3.55,8.93-6.3,14.09-8.23c0.35,0.91-0.76,7.76-1.46,10.33c6.93-4.83,13.65-8.9,21.53-11.95"/>
<path class="st0" d="M12.5,23.63c6.93-2.03,21.85-9.45,21.85-9.45s-3.52,6.62-5.38,8.69c5.25-3.38,10.16-6.52,15.8-9.21
	c0.74,2.44-3.42,5.9-4.8,7.92c6.18,0.07,15.17-7.04,15.17-7.04s-1.26,5.87-2.55,8.77c5.46-0.39,12.26-9.13,12.26-9.13
	s-4.61,7.88-4.03,10.87c6.14-4.38,11.89-8.55,18.79-11.64c0.05,0.93,0.1,1.86,0.15,2.78c-1.81,2.95-3.56,5.93-5.25,8.95
	c6.52-5.29,12.85-10.37,20.06-14.69c0.18,5.09-3.16,9.09-5.39,13.53c5.9-3.81,11.24-8.03,17.42-11.39
	c-0.4,5.06-3.34,8.85-5.65,13.26c5.42-4.32,10.57-8.59,16.56-12.09c-0.46,3.76-2.71,6.44-3.73,10.03c5.38-3.34,10.43-6.46,16.5-8.36
	c-0.67,3.4-2.94,5.86-3.29,9.23"/>
</svg>
