<?xml version="1.0" encoding="utf-8"?>
<!-- Generator: Adobe Illustrator 21.0.2, SVG Export Plug-In . SVG Version: 6.00 Build 0)  -->
<svg version="1.1" id="Layer_1" xmlns="http://www.w3.org/2000/svg" xmlns:xlink="http://www.w3.org/1999/xlink" x="0px" y="0px"
	 viewBox="0 0 20 15" style="enable-background:new 0 0 20 15;" xml:space="preserve">
<style type="text/css">
	.st0{fill:#FFFFFF;}
</style>
<path class="st0" d="M14.2,2.2c-0.9,0.1-2.7,0.2-3.8,0.9c-0.1,0-0.1,0.1-0.1,0.2v6c0,0.2,0.2,0.3,0.4,0.2c1.1-0.6,2.8-0.7,3.6-0.8
	c0.3,0,0.5-0.2,0.5-0.5V2.7C14.7,2.4,14.5,2.1,14.2,2.2z M9.6,3.1C8.5,2.4,6.7,2.2,5.8,2.2c-0.3,0-0.6,0.2-0.6,0.5v5.5
	c0,0.3,0.2,0.5,0.5,0.5c0.8,0,2.5,0.2,3.6,0.8c0.2,0.1,0.4,0,0.4-0.2v-6C9.7,3.2,9.7,3.1,9.6,3.1z"/>
</svg>
